{
	"asset":{
		"generator":"Khronos glTF Blender I/O v4.2.69",
		"version":"2.0"
	},
	"extensionsUsed":[
		"KHR_materials_transmission"
	],
	"scene":0,
	"scenes":[
		{
			"name":"Scene",
			"nodes":[
				0,
				1
			]
		}
	],
	"nodes":[
		{
			"mesh":0,
			"name":"Sphere",
			"rotation":[
				-0.6904929280281067,
				0.01899627037346363,
				-0.01588120497763157,
				0.7229153513908386
			]
		},
		{
			"mesh":1,
			"name":"Sphere.001",
			"rotation":[
				-0.6904929280281067,
				0.01899626851081848,
				-0.01588120497763157,
				0.7229153513908386
			],
			"scale":[
				1.0302120447158813,
				1.0302120447158813,
				1.0302119255065918
			],
			"translation":[
				0.002689812798053026,
				0.012844373472034931,
				0.025325359776616096
			]
		}
	],
	"materials":[
		{
			"doubleSided":true,
			"name":"Material.003",
			"pbrMetallicRoughness":{
				"metallicFactor":0,
				"roughnessFactor":0.13999998569488525
			}
		},
		{
			"alphaMode":"BLEND",
			"doubleSided":true,
			"extensions":{
				"KHR_materials_transmission":{
					"transmissionFactor":0.5600000023841858
				}
			},
			"name":"Material.002",
			"pbrMetallicRoughness":{
				"baseColorFactor":[
					0.800000011920929,
					0.800000011920929,
					0.800000011920929,
					0.19272729754447937
				],
				"metallicFactor":0,
				"roughnessFactor":0.14363637566566467
			}
		}
	],
	"meshes":[
		{
			"name":"Sphere.001",
			"primitives":[
				{
					"attributes":{
						"POSITION":0,
						"NORMAL":1,
						"TEXCOORD_0":2
					},
					"indices":3,
					"material":0
				}
			]
		},
		{
			"name":"Sphere.002",
			"primitives":[
				{
					"attributes":{
						"POSITION":4,
						"NORMAL":5,
						"TEXCOORD_0":6
					},
					"indices":7,
					"material":1
				}
			]
		}
	],
	"accessors":[
		{
			"bufferView":0,
			"componentType":5126,
			"count":16630,
			"max":[
				0.9998912811279297,
				0.9702209234237671,
				1.0052753686904907
			],
			"min":[
				-1.001908302307129,
				-0.818963348865509,
				-0.9581620097160339
			],
			"type":"VEC3"
		},
		{
			"bufferView":1,
			"componentType":5126,
			"count":16630,
			"type":"VEC3"
		},
		{
			"bufferView":2,
			"componentType":5126,
			"count":16630,
			"type":"VEC2"
		},
		{
			"bufferView":3,
			"componentType":5123,
			"count":96000,
			"type":"SCALAR"
		},
		{
			"bufferView":4,
			"componentType":5126,
			"count":559,
			"max":[
				0.9999997019767761,
				1,
				0.9999993443489075
			],
			"min":[
				-0.9999990463256836,
				-0.9386720061302185,
				-1
			],
			"type":"VEC3"
		},
		{
			"bufferView":5,
			"componentType":5126,
			"count":559,
			"type":"VEC3"
		},
		{
			"bufferView":6,
			"componentType":5126,
			"count":559,
			"type":"VEC2"
		},
		{
			"bufferView":7,
			"componentType":5123,
			"count":2880,
			"type":"SCALAR"
		}
	],
	"bufferViews":[
		{
			"buffer":0,
			"byteLength":199560,
			"byteOffset":0,
			"target":34962
		},
		{
			"buffer":0,
			"byteLength":199560,
			"byteOffset":199560,
			"target":34962
		},
		{
			"buffer":0,
			"byteLength":133040,
			"byteOffset":399120,
			"target":34962
		},
		{
			"buffer":0,
			"byteLength":192000,
			"byteOffset":532160,
			"target":34963
		},
		{
			"buffer":0,
			"byteLength":6708,
			"byteOffset":724160,
			"target":34962
		},
		{
			"buffer":0,
			"byteLength":6708,
			"byteOffset":730868,
			"target":34962
		},
		{
			"buffer":0,
			"byteLength":4472,
			"byteOffset":737576,
			"target":34962
		},
		{
			"buffer":0,
			"byteLength":5760,
			"byteOffset":742048,
			"target":34963
		}
	],
	"buffers":[
		{
			"byteLength":747808,
			"uri":"3d%20eye%20ball.bin"
		}
	]
}
